<svg width="150" height="150" xmlns="http://www.w3.org/2000/svg" fill="none">

 <g>
  <title>Layer 1</title>
  <path id="svg_2" fill="#e6e6e6" d="m9,29.7229l0,33.0607l0,2.3614c0,2.6084 2.1145,4.723 4.7229,4.723l30.6992,0l12.6142,11.6438c0.8467,0.7816 2.1968,0.0117 1.9554,-1.115l-2.7622,-12.8903l8.2651,0c2.6084,0 4.7229,-2.1145 4.7229,-4.7229l0,-33.0607c0,-2.6084 -2.1145,-4.7229 -4.7229,-4.7229l-50.7717,0c-2.6084,0 -4.7229,2.1145 -4.7229,4.7229z"/>
  <path id="svg_3" fill="#e6e6e6" d="m149.218,57.7229l0,33.0607l0,2.3614c0,2.6084 -2.115,4.723 -4.723,4.723l-30.7,0l-12.614,11.644c-0.846,0.781 -2.1966,0.012 -1.9551,-1.115l2.7621,-12.8905l-8.2651,0c-2.6084,0 -4.7229,-2.1145 -4.7229,-4.7229l0,-33.0607c0,-2.6084 2.1145,-4.7229 4.7229,-4.7229l50.7721,0c2.608,0 4.723,2.1145 4.723,4.7229z"/>
  <path id="svg_4" fill="#e6e6e6" d="m42,101.41l0,16.871l0,1.205c0,1.331 1.0886,2.41 2.4314,2.41l15.8039,0l6.4938,5.942c0.4358,0.399 1.1309,0.006 1.0066,-0.569l-1.422,-6.578l4.2549,0c1.3428,0 2.4314,-1.079 2.4314,-2.41l0,-16.871c0,-1.331 -1.0886,-2.41 -2.4314,-2.41l-26.1372,0c-1.3428,0 -2.4314,1.079 -2.4314,2.41z"/>
  <circle id="svg_5" fill="#ff6300" r="3.5" cy="46.5" cx="25.5"/>
  <circle id="svg_6" fill="#ff6300" r="3.5" cy="46.5" cx="38.5"/>
  <circle id="svg_7" fill="#ff6300" r="3.5" cy="46.5" cx="51.5"/>
 </g>
</svg>